<?xml version="1.0" encoding="utf-8"?>
<!-- Generator: Adobe Illustrator 25.0.0, SVG Export Plug-In . SVG Version: 6.00 Build 0)  -->
<svg version="1.1" id="图层_1" xmlns="http://www.w3.org/2000/svg" xmlns:xlink="http://www.w3.org/1999/xlink" x="0px" y="0px"
	 viewBox="0 0 166 29" style="enable-background:new 0 0 166 29;" xml:space="preserve">
<style type="text/css">
	.st0{fill:#ffffff;}
</style>
<g>
	<path class="st0" d="M26.6,18c-0.1-3.1-0.3-7-0.2-10.7h-0.1c-0.8,3.4-1.8,7.1-2.7,10l-3.1,10.5H16l-2.8-10.3
		c-0.8-2.9-1.6-6.7-2.2-10.1h-0.1c-0.1,3.5-0.3,7.5-0.4,10.8L10,28.3H4.6L6.4,0.7h7.5l2.5,9.4c0.8,3.3,1.6,6.6,2.2,9.8h0.1
		c0.7-3.1,1.5-6.6,2.4-9.8l2.7-9.4h7.4l1.5,27.5H27L26.6,18z"/>
	<path class="st0" d="M41.8,20.2c0.1,2.7,2.5,3.9,5.2,3.9c1.9,0,3.5-0.3,5-0.8l0.8,4.1c-1.9,0.8-4.2,1.2-6.7,1.2
		c-6.4,0-10-3.8-10-10.1c0-5.6,3.3-10.7,9.5-10.7c5.8,0,8.3,4.5,8.3,9.8c0,1.2-0.1,2.1-0.2,2.6C53.7,20.2,41.8,20.2,41.8,20.2z
		 M48.3,16.1c0-1.8-0.7-4.2-3.1-4.2c-2.4,0-3.3,2.4-3.5,4.2H48.3z"/>
	<path class="st0" d="M64,2.7v5.6h4.3v4.3H64v7.8c0,2.4,0.7,3.3,2.3,3.3c0.7,0,1.3-0.1,1.7-0.2v4.6c-0.8,0.3-2.2,0.5-3.8,0.5
		c-1.9,0-3.4-0.6-4.4-1.6c-1.1-1.1-1.7-2.9-1.7-5.9v-8.6h-2.6V8.3h2.6V4L64,2.7z"/>
	<path class="st0" d="M82.2,28.3l-0.3-2h-0.1c-1.2,1.6-3.1,2.4-5.3,2.4c-3.8,0-6.1-2.8-6.1-6.1c0-5.2,4.6-7.6,10.9-7.6v-0.3
		c0-1.2-0.7-2.6-3.4-2.6c-1.9,0-3.8,0.6-5.1,1.4l-1.1-3.9C73,8.8,75.6,7.9,79,7.9c6.5,0,8.3,4,8.3,8.5v7.1c0,1.8,0.1,3.6,0.3,4.8
		H82.2z M81.5,18.7c-2.8,0-5.3,0.7-5.3,3.2c0,1.7,1.1,2.5,2.3,2.5c1.3,0,2.5-0.9,2.9-2.1c0.1-0.3,0.1-0.7,0.1-1V18.7z"/>
	<path class="st0" d="M91.6,25c0-2.2,1.5-3.7,3.5-3.7s3.5,1.5,3.5,3.7s-1.4,3.7-3.5,3.7S91.6,27.2,91.6,25z"/>
	<path class="st0" d="M108.4,0.7v27.5h-6V0.7H108.4z"/>
	<path class="st0" d="M134.3,27.2c-1.7,0.6-5,1.4-8.1,1.4c-4.5,0-7.7-1.1-10-3.4c-2.5-2.4-3.8-6.1-3.8-10.3
		c0.1-9.4,6.4-14.3,14.5-14.3c3.1,0,5.5,0.6,6.7,1.2l-1.2,4.9c-1.3-0.6-2.9-1-5.4-1c-4.7,0-8.4,2.8-8.4,9.1c0,6,3.3,9,7.6,9
		c1.1,0,2-0.1,2.4-0.3v-6h-3.7v-4.7h9.4V27.2z"/>
	<path class="st0" d="M161.4,14.2c0,9.4-4.9,14.5-12.1,14.5c-7.6,0-11.7-6.3-11.7-14.1c0-8,4.6-14.3,12.1-14.3
		C157.6,0.3,161.4,6.9,161.4,14.2z M143.9,14.5c0,5.6,2.1,9.3,5.7,9.3c3.6,0,5.6-4,5.6-9.4c0-4.9-1.9-9.2-5.6-9.2
		C146,5.2,143.9,9,143.9,14.5z"/>
</g>
</svg>
